<?xml version="1.0" standalone="no"?>
<!DOCTYPE svg PUBLIC "-//W3C//DTD SVG 20010904//EN"
 "http://www.w3.org/TR/2001/REC-SVG-20010904/DTD/svg10.dtd">
<svg version="1.0" xmlns="http://www.w3.org/2000/svg"
 width="260.000000pt" height="260.000000pt" viewBox="0 0 260.000000 260.000000"
 preserveAspectRatio="xMidYMid meet">
<metadata>
Created by potrace 1.11, written by Peter Selinger 2001-2013
</metadata>
<g transform="translate(0.000000,260.000000) scale(0.100000,-0.100000)"
fill="#000000" stroke="none">
<path d="M701 1958 c-13 -7 -28 -20 -33 -28 -4 -8 -96 -269 -204 -580 -138
-400 -193 -569 -186 -580 5 -8 26 -18 48 -23 49 -11 159 0 173 17 6 7 30 69
54 137 l42 124 225 0 225 0 45 -126 c25 -69 48 -130 53 -136 10 -16 142 -26
197 -15 43 8 45 9 44 42 -2 37 -378 1128 -400 1158 -10 14 -32 17 -136 20 -86
2 -130 -1 -147 -10z m207 -495 l80 -243 -170 0 c-132 0 -169 3 -166 13 3 6 41
119 84 249 43 131 81 234 85 230 4 -4 43 -116 87 -249z"/>
<path d="M1567 1942 c-15 -17 -17 -72 -17 -590 l0 -571 22 -15 c31 -22 411
-23 523 -1 143 27 235 86 291 187 27 49 29 61 29 158 0 96 -2 109 -27 151 -36
61 -86 104 -147 125 l-49 18 43 27 c171 109 149 394 -38 482 -80 38 -152 47
-392 47 -202 0 -223 -2 -238 -18z m428 -173 c21 -6 54 -26 72 -44 30 -30 33
-38 33 -95 0 -73 -19 -111 -69 -142 -27 -17 -55 -22 -137 -26 l-104 -5 0 162
0 161 83 0 c45 0 100 -5 122 -11z m70 -508 c122 -55 140 -218 32 -289 -38 -25
-49 -27 -174 -30 l-133 -4 0 171 0 171 118 0 c92 0 126 -4 157 -19z"/>
</g>
</svg>
